<svg width="312" height="17" viewBox="0 0 312 17" fill="none" xmlns="http://www.w3.org/2000/svg">
<path d="M308.372 10.344V6.744C308.372 4.344 307.7 2.664 305.252 2.664H293.228V13.584H304.412C307.028 13.584 308.372 12.624 308.372 10.344ZM305.804 16.248H290.324V0H305.804C309.452 0 311.276 2.256 311.276 5.808V10.584C311.276 14.04 309.476 16.248 305.804 16.248Z" fill="#829CD2"/>
<path d="M283.414 16.248H280.534C280.27 16.056 280.126 15.768 280.126 15.192V12.192C280.126 10.8 279.214 10.272 277.87 10.272H264.838V16.248H261.934V0H279.07C281.782 0 282.766 1.296 282.766 3.672V5.688C282.766 8.448 281.254 8.88 280.27 9C281.35 9.096 283.006 9.624 283.006 12.192V15.192C283.006 15.768 283.174 16.056 283.414 16.248ZM279.886 6.144V4.344C279.886 3.096 279.382 2.424 278.038 2.424H264.838V8.04H277.798C279.046 8.04 279.886 7.584 279.886 6.144Z" fill="#829CD2"/>
<path d="M254.282 16.248H237.05C234.338 16.248 233.354 14.952 233.354 12.576V10.488C233.354 8.112 234.338 6.816 237.05 6.816H251.402V5.568C251.402 3.624 250.562 2.664 248.81 2.664H233.762V0H249.41C252.746 0 254.282 1.752 254.282 5.28V16.248ZM251.402 13.824V9.048H238.082C236.738 9.048 236.234 9.72 236.234 10.968V11.88C236.234 13.152 236.738 13.824 238.082 13.824H251.402Z" fill="#829CD2"/>
<path d="M225.69 16.248H210.186C206.898 16.248 205.314 14.472 205.314 10.968V0H208.242V10.68C208.242 12.6 209.082 13.584 210.81 13.584H222.834V0H225.69V16.248Z" fill="#829CD2"/>
<path d="M197.681 16.248H180.641C177.905 16.248 176.897 14.952 176.897 11.952V5.28C176.897 1.752 178.457 0 181.817 0H197.297V2.664H182.417C180.617 2.664 179.801 3.624 179.801 5.568V11.568C179.801 13.128 180.329 13.824 181.673 13.824H194.801V7.392H197.681V16.248Z" fill="#829CD2"/>
<path d="M158.321 16.248H145.601C142.289 16.248 140.729 14.496 140.729 10.968V0H143.633V10.68C143.633 12.6 144.449 13.584 146.201 13.584H158.321V16.248Z" fill="#829CD2"/>
<path d="M132.762 16.248H117.138C113.778 16.248 112.218 14.496 112.218 10.968V3.672C112.218 1.296 113.226 0 115.962 0H129.474C132.21 0 133.17 1.296 133.17 3.672V5.856C133.17 8.232 132.21 9.528 129.474 9.528H115.122V10.68C115.122 12.6 115.938 13.584 117.738 13.584H132.762V16.248ZM130.29 5.328V4.344C130.29 3.096 129.786 2.424 128.442 2.424H116.994C115.65 2.424 115.122 3.096 115.122 4.344V7.272H128.442C129.786 7.272 130.29 6.576 130.29 5.328Z" fill="#829CD2"/>
<path d="M96.2216 13.896L103.494 0H106.83L98.0936 16.248H91.4216L82.5176 0H85.9736L93.3896 13.896H96.2216Z" fill="#829CD2"/>
<path d="M77.0237 16.248H59.7917C57.0797 16.248 56.0957 14.952 56.0957 12.576V10.488C56.0957 8.112 57.0797 6.816 59.7917 6.816H74.1437V5.568C74.1437 3.624 73.3037 2.664 71.5517 2.664H56.5037V0H72.1517C75.4877 0 77.0237 1.752 77.0237 5.28V16.248ZM74.1437 13.824V9.048H60.8237C59.4797 9.048 58.9757 9.72 58.9757 10.968V11.88C58.9757 13.152 59.4797 13.824 60.8237 13.824H74.1437Z" fill="#829CD2"/>
<path d="M49.2808 16.248H46.4008C46.1368 16.056 45.9928 15.768 45.9928 15.192V12.192C45.9928 10.8 45.0808 10.272 43.7368 10.272H30.7048V16.248H27.8008V0H44.9368C47.6488 0 48.6328 1.296 48.6328 3.672V5.688C48.6328 8.448 47.1208 8.88 46.1368 9C47.2168 9.096 48.8728 9.624 48.8728 12.192V15.192C48.8728 15.768 49.0408 16.056 49.2808 16.248ZM45.7528 6.144V4.344C45.7528 3.096 45.2488 2.424 43.9048 2.424H30.7048V8.04H43.6648C44.9128 8.04 45.7528 7.584 45.7528 6.144Z" fill="#829CD2"/>
<path d="M12.1555 16.248H9.27548V2.664H0.563477V0H20.8915V2.664H12.1555V16.248Z" fill="#829CD2"/>
</svg>
