<svg width="311" height="18" viewBox="0 0 311 18" fill="none" xmlns="http://www.w3.org/2000/svg">
<path d="M307.809 11.22V7.62C307.809 5.22 307.137 3.54 304.689 3.54H292.665V14.46H303.849C306.465 14.46 307.809 13.5 307.809 11.22ZM305.241 17.124H289.761V0.875999H305.241C308.889 0.875999 310.713 3.132 310.713 6.684V11.46C310.713 14.916 308.913 17.124 305.241 17.124Z" fill="#F0F0F0"/>
<path d="M282.85 17.124H279.97C279.706 16.932 279.562 16.644 279.562 16.068V13.068C279.562 11.676 278.65 11.148 277.306 11.148H264.274V17.124H261.37V0.875999H278.506C281.218 0.875999 282.202 2.172 282.202 4.548V6.564C282.202 9.324 280.69 9.756 279.706 9.876C280.786 9.972 282.442 10.5 282.442 13.068V16.068C282.442 16.644 282.61 16.932 282.85 17.124ZM279.322 7.02V5.22C279.322 3.972 278.818 3.3 277.474 3.3H264.274V8.916H277.234C278.482 8.916 279.322 8.46 279.322 7.02Z" fill="#F0F0F0"/>
<path d="M253.718 17.124H236.486C233.774 17.124 232.79 15.828 232.79 13.452V11.364C232.79 8.988 233.774 7.692 236.486 7.692H250.838V6.444C250.838 4.5 249.998 3.54 248.246 3.54H233.198V0.875999H248.846C252.182 0.875999 253.718 2.628 253.718 6.156V17.124ZM250.838 14.7V9.924H237.518C236.174 9.924 235.67 10.596 235.67 11.844V12.756C235.67 14.028 236.174 14.7 237.518 14.7H250.838Z" fill="#F0F0F0"/>
<path d="M225.127 17.124H209.623C206.335 17.124 204.751 15.348 204.751 11.844V0.875999H207.679V11.556C207.679 13.476 208.519 14.46 210.247 14.46H222.271V0.875999H225.127V17.124Z" fill="#F0F0F0"/>
<path d="M197.118 17.124H180.078C177.342 17.124 176.334 15.828 176.334 12.828V6.156C176.334 2.628 177.894 0.875999 181.254 0.875999H196.734V3.54H181.854C180.054 3.54 179.238 4.5 179.238 6.444V12.444C179.238 14.004 179.766 14.7 181.11 14.7H194.238V8.268H197.118V17.124Z" fill="#F0F0F0"/>
<path d="M157.757 17.124H145.037C141.725 17.124 140.165 15.372 140.165 11.844V0.875999H143.069V11.556C143.069 13.476 143.885 14.46 145.637 14.46H157.757V17.124Z" fill="#F0F0F0"/>
<path d="M132.198 17.124H116.574C113.214 17.124 111.654 15.372 111.654 11.844V4.548C111.654 2.172 112.662 0.875999 115.398 0.875999H128.91C131.646 0.875999 132.606 2.172 132.606 4.548V6.732C132.606 9.108 131.646 10.404 128.91 10.404H114.558V11.556C114.558 13.476 115.374 14.46 117.174 14.46H132.198V17.124ZM129.726 6.204V5.22C129.726 3.972 129.222 3.3 127.878 3.3H116.43C115.086 3.3 114.558 3.972 114.558 5.22V8.148H127.878C129.222 8.148 129.726 7.452 129.726 6.204Z" fill="#F0F0F0"/>
<path d="M95.6581 14.772L102.93 0.875999H106.266L97.5301 17.124H90.8581L81.9541 0.875999H85.4101L92.8261 14.772H95.6581Z" fill="#F0F0F0"/>
<path d="M76.4602 17.124H59.2282C56.5162 17.124 55.5322 15.828 55.5322 13.452V11.364C55.5322 8.988 56.5162 7.692 59.2282 7.692H73.5802V6.444C73.5802 4.5 72.7402 3.54 70.9882 3.54H55.9402V0.875999H71.5882C74.9242 0.875999 76.4602 2.628 76.4602 6.156V17.124ZM73.5802 14.7V9.924H60.2602C58.9162 9.924 58.4122 10.596 58.4122 11.844V12.756C58.4122 14.028 58.9162 14.7 60.2602 14.7H73.5802Z" fill="#F0F0F0"/>
<path d="M48.7173 17.124H45.8373C45.5733 16.932 45.4293 16.644 45.4293 16.068V13.068C45.4293 11.676 44.5173 11.148 43.1733 11.148H30.1413V17.124H27.2373V0.875999H44.3733C47.0853 0.875999 48.0693 2.172 48.0693 4.548V6.564C48.0693 9.324 46.5573 9.756 45.5733 9.876C46.6533 9.972 48.3093 10.5 48.3093 13.068V16.068C48.3093 16.644 48.4773 16.932 48.7173 17.124ZM45.1893 7.02V5.22C45.1893 3.972 44.6853 3.3 43.3413 3.3H30.1413V8.916H43.1013C44.3493 8.916 45.1893 8.46 45.1893 7.02Z" fill="#F0F0F0"/>
<path d="M11.592 17.124H8.712V3.54H0V0.875999H20.328V3.54H11.592V17.124Z" fill="#F0F0F0"/>
</svg>
