<svg width="48" height="49" viewBox="0 0 48 49" fill="none" xmlns="http://www.w3.org/2000/svg">
<path fill-rule="evenodd" clip-rule="evenodd" d="M27.108 28.8463C25.2506 30.3303 22.8955 31.0469 20.5264 30.8487C18.1572 30.6506 15.9539 29.5528 14.3689 27.7809C12.7839 26.0089 11.9375 23.6973 12.0036 21.3208C12.0697 18.9443 13.0433 16.6833 14.7244 15.0022C16.4055 13.3211 18.6665 12.3475 21.043 12.2814C23.4195 12.2153 25.7311 13.0617 27.503 14.6467C29.275 16.2317 30.3728 18.4351 30.5709 20.8042C30.7691 23.1734 30.0525 25.5285 28.5685 27.3858L35.6725 34.4885C35.774 34.5831 35.8554 34.6971 35.9119 34.8239C35.9684 34.9507 35.9988 35.0875 36.0012 35.2262C36.0037 35.365 35.9781 35.5028 35.9262 35.6315C35.8742 35.7602 35.7968 35.877 35.6987 35.9752C35.6006 36.0733 35.4837 36.1507 35.355 36.2026C35.2264 36.2546 35.0885 36.2801 34.9498 36.2777C34.811 36.2752 34.6742 36.2449 34.5474 36.1884C34.4207 36.1319 34.3066 36.0505 34.212 35.9489L27.108 28.8463ZM16.1888 26.6941C15.1775 25.6828 14.4888 24.3943 14.2096 22.9916C13.9304 21.5889 14.0733 20.135 14.6202 18.8135C15.1671 17.4919 16.0935 16.3622 17.2822 15.567C18.471 14.7719 19.8689 14.347 21.2991 14.346C22.7293 14.345 24.1277 14.7681 25.3175 15.5616C26.5074 16.3552 27.4353 17.4837 27.984 18.8045C28.5327 20.1252 28.6775 21.579 28.4002 22.9821C28.1229 24.3852 27.4359 25.6745 26.426 26.6873L26.4191 26.6941L26.4122 26.6997C25.0552 28.0535 23.2162 28.8134 21.2993 28.8124C19.3825 28.8113 17.5444 28.0495 16.1888 26.6941Z" fill="#F0F0F0"/>
</svg>
